<?xml version="1.0" encoding="UTF-8"?>
<svg enable-background="new 0 0 2663.905 1662.885" version="1.1" viewBox="0 0 2663.905 1662.885" xmlns="http://www.w3.org/2000/svg">
 <path d="m1360.4 597.57v-79.485l-72.806-11.113c-3.608-23.532-9.728-46.221-17.971-67.846l55.932-45.264 0.287 0.497 1.073-0.862-0.286-0.503 0.63-0.51-39.128-68.831-68.675 27.406c-14.501-18.251-30.886-34.86-48.861-49.595l22.546-58.274 0.033 0.019 4.076-10.48-0.05-0.029 0.384-0.993-67.772-39.72-45.964 58.567c-21.263-8.33-43.594-14.533-66.75-18.178l-10.971-74.053h-78.248l-0.149 1.004h-0.191l-2.132 14.258h0.209l-8.713 58.791c-23.161 3.645-45.478 9.843-66.736 18.178l-45.982-58.567-67.763 39.72 0.26 0.671-0.599 0.351 2.939 7.606 0.602-0.348 23.773 61.477c-17.971 14.739-34.333 31.344-48.838 49.595l-68.68-27.406-39.129 68.831 57.613 46.642c-8.225 21.625-14.34 44.314-17.944 67.846l-72.824 11.113v0.961l-0.339 0.052v18.233l0.339-0.051v60.291l72.765 11.095c3.594 23.569 9.705 46.285 17.934 67.914l-57.553 46.596 0.29 0.51-0.611 0.494 4.763 8.436 0.637-0.508 34.049 59.863 68.524-27.328c14.519 18.301 30.931 34.975 48.925 49.742l-26.902 69.555 67.763 39.747 45.817-58.388c21.332 8.38 43.713 14.579 66.933 18.246l10.948 73.792h78.243l10.939-73.792c23.211-3.672 45.606-9.866 66.929-18.246l45.817 58.388 62.307-36.542 0.257 0.655 4.878-2.838-0.261-0.675 0.592-0.347-26.897-69.555c17.994-14.767 34.416-31.436 48.935-49.742l68.515 27.328 31.935-56.148 0.17 0.135 6.679-11.773-0.158-0.127 0.501-0.881-57.558-46.596c8.238-21.643 14.331-44.35 17.93-67.914l72.77-11.097z" enable-background="new "/>
 <path d="m2091 494.36l-20.572-76.777-73.201 8.109c-9.576-21.796-21.36-42.128-34.918-60.883l42.312-58.198 0.405 0.406 0.813-1.11-0.407-0.412 0.477-0.656-55.61-56.359-59.242 44.246c-18.73-13.876-38.856-25.679-60.032-35.259l6.695-62.123 0.036 0.01 1.224-11.178-0.055-0.015 0.114-1.059-75.743-20.826-29.24 68.467c-22.694-2.543-45.87-2.755-69.18-0.282l-29.763-68.69-75.581 20.252 0.116 1.008-0.184 0.049 1.631 14.324 0.202-0.054 6.8 59.043c-21.428 9.515-41.381 21.278-59.757 34.831l-59.573-44.67-55.174 55.905 0.425 0.581-0.488 0.494 4.807 6.586 0.492-0.492 38.874 53.229c-13.544 18.888-25.051 39.162-34.338 60.545l-73.433-8.696-19.981 76.613 67.722 30.142c-2.347 23.017-2.382 46.515 0.228 70.178l-67.467 29.582 0.249 0.928-0.314 0.138 4.719 17.611 0.314-0.137 15.604 58.236 73.157-8.116c9.572 21.835 21.354 42.195 34.901 60.958l-43.532 59.905 0.412 0.417-0.462 0.636 6.784 6.915 0.484-0.656 48.382 49.011 59.116-44.132c18.761 13.92 38.93 25.778 60.132 35.384l-7.983 74.148 75.741 20.855 29.144-68.256c22.774 2.574 45.997 2.768 69.375 0.301l29.673 68.444 75.577-20.251-8.533-74.108c21.47-9.555 41.499-21.334 59.926-34.947l59.368 44.54 50.726-51.423 0.418 0.566 3.977-4.004-0.427-0.585 0.482-0.488-43.983-60.224c13.559-18.921 25.107-39.272 34.393-60.712l73.253 8.664 16.315-62.5 0.199 0.087 3.405-13.101-0.185-0.082 0.256-0.981-67.657-30.112c2.356-23.038 2.364-46.548-0.258-70.241l67.418-29.549z" enable-background="new "/>
 <ellipse transform="matrix(.9992 -.04 .04 .9992 -64.715 23.846)" cx="564.03" cy="1630.5" rx=".003" ry=".003"/>
 <ellipse transform="matrix(.04 -.9992 .9992 .04 386.8 3663.5)" cx="2099.9" cy="1630.5" rx=".003" ry=".003"/>
 <path d="m2611.2 844.76c-11.426-63.651-144.12-196.43-201.76-286.44 12.425-27.346 15.9-53.704 12.425-80.061-32.8-246.16-266.19-484.41-685.79-440.59-62.822 6.562-121.01 18.797-174.3 36.075 26.397-4.305 53.494-6.552 81.11-6.552 275.8 0 499.38 223.57 499.38 499.38 0 275.8-223.58 499.38-499.38 499.38-95.951 0-185.57-27.087-261.67-73.989-17.149-10.577-33.609-22.133-49.299-34.637-15.691 12.505-32.15 24.06-49.299 34.637-76.096 46.902-165.72 73.989-261.67 73.989-275.8 0-499.38-223.58-499.38-499.38 0-275.81 223.58-499.38 499.38-499.38 27.616 0 54.712 2.247 81.11 6.552-53.284-17.279-111.47-29.514-174.3-36.075-419.6-43.826-652.99 194.43-685.79 440.59-3.476 26.357 0 52.715 12.425 80.061-57.639 90.009-190.34 222.78-201.76 286.44-6.961 38.283 38.263 51.716 60.136 65.14 20.874 6.961 43.726 1.987 57.639 18.897 9.948 12.435-3.476 33.319-6.462 48.74-0.489 25.359-30.303 37.793-27.326 61.164 2.986 19.885 19.875 27.846 35.286 40.28 16.4 12.924-41.748 37.783-22.862 60.665 19.376 22.372 47.711 48.23 37.763 80.061-14.412 49.229-42.248 100.45-19.376 138.74 22.862 37.793 54.662 60.166 103.86 70.113 77.025 0 154.55 1.498 232.07 1.498 26.827 23.371 45.714 98.958 60.625 200.4h1535.8c14.912-101.44 33.798-177.03 60.625-200.4 77.524 0 155.05-1.498 232.07-1.498 49.199-9.948 81-32.32 103.86-70.113 22.872-38.293-4.964-89.51-19.376-138.74-9.948-31.831 18.387-57.689 37.763-80.061 18.887-22.882-39.261-47.741-22.862-60.665 15.411-12.435 32.3-20.395 35.287-40.28 2.976-23.371-26.837-35.806-27.326-61.164-2.986-15.421-16.41-36.305-6.462-48.74 13.913-16.909 36.764-11.935 57.639-18.897 21.873-13.424 67.097-26.857 60.136-65.14zm-1279.3 722.22c-29.154-152.47-57.119-352.24-42.378-406.45 8.979-34.018 24.43-65.349 42.378-95.013 17.948 29.663 33.399 60.995 42.378 95.013 14.742 54.203-13.224 253.98-42.378 406.45z"/>
</svg>
